<?xml version="1.0" encoding="utf-8"?>
<!-- Generator: Adobe Illustrator 18.1.1, SVG Export Plug-In . SVG Version: 6.00 Build 0)  -->
<svg version="1.1" id="Слой_1" xmlns="http://www.w3.org/2000/svg" xmlns:xlink="http://www.w3.org/1999/xlink" x="0px" y="0px"
	 viewBox="0 0 77.417 77.417" enable-background="new 0 0 77.417 77.417" xml:space="preserve">
<path fill="#692045" d="M2,2h73.417v73.417H2V2z M0,77.417h77.417V0H0V77.417z"/>
<g>
	<defs>
		<rect id="SVGID_1_" y="0" width="77.417" height="77.417"/>
	</defs>
	<clipPath id="SVGID_2_">
		<use xlink:href="#SVGID_1_"  overflow="visible"/>
	</clipPath>
	<path clip-path="url(#SVGID_2_)" fill="#692045" d="M9.644,25.691c0.031,0.05,0.062,0.1,0.092,0.151h60.641
		C60.031,20.067,49.956,14.443,39.871,8.813C29.787,14.444,19.715,20.067,9.644,25.691"/>
	<path clip-path="url(#SVGID_2_)" fill="#692045" d="M7.701,69.175l5.692-8.855V29.396h8.316V60.32h6.524V29.411h8.312V60.32h6.616
		V29.408h8.228V60.32h6.648V29.384h8.321v1.369c0,9.505,0.023,29.567,0.023,29.567l5.654,8.855H7.701z"/>
	<path clip-path="url(#SVGID_2_)" fill="#692045" d="M9.644,25.691c10.071-5.624,20.143-11.247,30.227-16.878
		c10.085,5.63,20.16,11.254,30.506,17.029H9.736C9.706,25.791,9.675,25.741,9.644,25.691"/>
</g>
</svg>
