<?xml version="1.0" encoding="utf-8"?>
<!-- Generator: Adobe Illustrator 18.1.1, SVG Export Plug-In . SVG Version: 6.00 Build 0)  -->
<svg version="1.1" id="Слой_1" xmlns="http://www.w3.org/2000/svg" xmlns:xlink="http://www.w3.org/1999/xlink" x="0px" y="0px"
	 viewBox="0 0 77.417 77.417" enable-background="new 0 0 77.417 77.417" xml:space="preserve">
<path fill="#692045" d="M2.001,2h73.417v73.417H2.001V2z M0,77.417h77.417V0H0V77.417z"/>
<g>
	<defs>
		<rect id="SVGID_1_" y="0" width="77.417" height="77.417"/>
	</defs>
	<clipPath id="SVGID_2_">
		<use xlink:href="#SVGID_1_"  overflow="visible"/>
	</clipPath>
	<path clip-path="url(#SVGID_2_)" fill="#692045" d="M73.475,27.053c-0.835,0.204-1.457,0.356-1.457,0.356
		s-26.61-9.435-27.167-9.593c-0.048,0.131-0.095,0.261-0.142,0.393c8.049,3.162,24.926,9.586,24.919,9.702
		c-2.146,0.494-7.385,1.652-7.385,1.652l-2.266-1.974l-5.145,1.044l-0.085,2.637c0,0-5.706,1.467-8.644,2.223
		c0.239,2.378-0.089,4.482-1.881,6.111c-1.753,1.593-3.831,2.289-6.346,2.462v-6.012c0.767,0.462,2.03,0.277,2.206-0.297
		c0.793,0.913,2.123,0.829,2.625,0.113c1.872-2.671,2.801-5.572,1.581-9.285c-0.211-0.548-0.873-1.244-0.873-1.244l-5.942-1.016
		l-0.069-1.632l3.471,0.586c0,0,1.277-0.678,1.277-2.432c0-1.755-0.987-2.321-0.987-2.321l-3.807-1.183v-3.628
		c2.071-0.893,4.156-1.457,6.458-0.59c2.406,0.907,3.009,0.702,4.524-1.335c0.85-1.141,1.957-1.537,3.321-1.259
		c0.754,0.154,1.5,0.357,2.626,0.629c-1.613-1.75-3.267-2.733-5.141-3.144c-0.803-0.176-1.88,0.156-2.621,0.605
		c-1.278,0.775-2.344,0.952-3.669,0.087c-1.644-1.074-3.467-0.484-5.364-0.24c-0.208-0.407-0.604-1.179-0.604-1.179l-0.58,0.532
		l-0.271,9.268l-5.613-1.691c0,0,0.923,1.201,0.923,2.955c0,1.755-1.016,2.771-1.016,2.771l5.45,1.231l-0.014,1.663l-6.731-1.067
		c0,0-0.582,0.482-0.49,2.914c0.05,1.322,0.932,2.127,0.986,3.447c0.068,1.717-0.62,3.064-2.574,4.013
		c0.264,1.129,1.743,1.775,2.758,0.9c0.8,1.337,3.14,1.706,4.199,0.512c0.48,1.04,1.866,1.194,1.866,1.194s-0.081,5.449-0.083,6.13
		c-2.44-0.224-4.532-0.735-6.519-1.671c-2.629-1.238-4.32-3.062-3.877-6.225c0.109-0.767,0.152-1.543,0.235-2.432
		c-3.583-1.204-11.034-3.705-11.034-3.705l13.981-10.229l-0.276-0.231c0,0-15.165,9.873-15.657,10.093
		c0.121,1.541,0.244,3.1,0.364,4.659c0.164,2.116,0.158,4.261,0.525,6.34c0.548,3.101,1.858,4.094,5.015,4.375
		c1.439,0.128,2.871,0.353,4.395,0.545c0.147,1.093,0.284,2.005,0.39,2.92c0.337,2.898,1.454,4.119,4.435,4.409
		c2.509,0.245,5.042,0.257,7.564,0.372c0.482,0.022,0.085,0.044,0.34,0.069l-0.302,2.803c-0.736-0.387-1.626-0.661-2.81-0.661
		c-2.081,0-3.273,0.834-4.265,1.672c-0.994-0.838-2.186-1.672-4.267-1.672c-2.082,0-3.273,0.835-4.267,1.673
		c-0.993-0.838-2.186-1.673-4.267-1.673V54.6c1.625,0,2.531,0.566,3.412,1.295h0.001h1.708h0.001
		c0.88-0.729,1.787-1.295,3.412-1.295s2.532,0.566,3.412,1.294v0.001h1.708c0-0.001,0.001-0.001,0.001-0.001
		c0.88-0.728,1.786-1.294,3.411-1.294c1.189,0,1.991,0.304,2.681,0.752l-0.365,3.413c-1.82,0.764-3.097,2.561-3.097,4.657
		c0,2.251,1.475,4.156,3.509,4.807v5.29h3.079v-5.29c2.035-0.651,3.51-2.556,3.51-4.807c0-2.029-1.199-3.773-2.924-4.575
		l-0.312-3.633c0.641-0.37,1.394-0.614,2.454-0.614c1.625,0,2.532,0.566,3.411,1.294c0.001,0,0.001,0,0.001,0.001h1.707l0.001-0.001
		c0.881-0.728,1.788-1.294,3.413-1.294c1.626,0,2.531,0.566,3.411,1.295h0.002h1.709c0.881-0.729,1.786-1.295,3.411-1.295v-1.108
		c-2.081,0-3.273,0.835-4.267,1.673c-0.993-0.838-2.184-1.673-4.266-1.673c-2.081,0-3.274,0.834-4.267,1.672
		c-0.993-0.838-2.185-1.672-4.266-1.672c-1.048,0-1.87,0.213-2.556,0.53l-0.243-2.852c1.515-0.173,4.043-0.279,5.375-0.548
		c2.335-0.472,4.661-1.016,6.967-1.612c2.237-0.577,3.548-2.061,4.342-4.252c0.809-2.235,1.896-4.377,2.946-6.518
		c1.082-2.201,8.1-2.847,8.625-8.157c1.869-0.708,4.729-1.572,7.121-2.258L73.475,27.053z"/>
</g>
</svg>
