<?xml version="1.0" encoding="utf-8"?>
<!-- Generator: Adobe Illustrator 18.1.1, SVG Export Plug-In . SVG Version: 6.00 Build 0)  -->
<svg version="1.1" id="Слой_1" xmlns="http://www.w3.org/2000/svg" xmlns:xlink="http://www.w3.org/1999/xlink" x="0px" y="0px"
	 viewBox="0 0 77.417 77.417" enable-background="new 0 0 77.417 77.417" xml:space="preserve">
<path fill="#692045" d="M2,2h73.417v73.417H2V2z M0,77.417h77.417V0H0V77.417z"/>
<g>
	<defs>
		<rect id="SVGID_1_" y="0" width="77.417" height="77.417"/>
	</defs>
	<clipPath id="SVGID_2_">
		<use xlink:href="#SVGID_1_"  overflow="visible"/>
	</clipPath>
	<path clip-path="url(#SVGID_2_)" fill="#692045" d="M30.227,12.368c0.133,0,0.245-0.001,0.356,0
		c0.558,0.002,0.807,0.249,0.807,0.803v7.086c0,0.563-0.255,0.817-0.82,0.817c-0.836,0.001-1.672,0.001-2.507,0
		c-0.556,0-0.808-0.253-0.808-0.808c-0.001-2.38,0-4.76-0.002-7.141c-0.001-0.306,0.096-0.563,0.387-0.687
		c0.14-0.06,0.31-0.068,0.465-0.065c0.179,0.003,0.283-0.041,0.366-0.219c0.654-1.413,1.564-2.642,2.72-3.687
		c0.956-0.864,2.025-1.55,3.211-2.06c0.774-0.332,1.572-0.583,2.397-0.735c1.036-0.191,2.082-0.239,3.137-0.15
		c1.064,0.09,2.093,0.323,3.089,0.693c0.9,0.335,1.748,0.78,2.529,1.337c0.952,0.679,1.805,1.467,2.52,2.396
		c0.54,0.702,0.999,1.452,1.371,2.254c0.061,0.131,0.128,0.167,0.26,0.169c0.176,0.004,0.366-0.006,0.524,0.056
		c0.292,0.114,0.408,0.366,0.407,0.676c-0.003,0.73-0.001,1.459-0.001,2.189v4.969c0,0.563-0.252,0.813-0.822,0.813
		c-0.835,0.001-1.671,0.001-2.507,0c-0.545,0-0.817-0.266-0.817-0.81c-0.002-2.368-0.002-4.736-0.001-7.104
		c0-0.304,0.086-0.577,0.383-0.715c0.122-0.057,0.27-0.061,0.408-0.075c0.118-0.011,0.238-0.002,0.374-0.002
		c-1.324-2.633-4.348-5.061-8.298-5.229C35.247,6.964,31.78,9.361,30.227,12.368"/>
	<path clip-path="url(#SVGID_2_)" fill="#692045" d="M38.935,9.738c3.629-0.005,5.752,1.368,6.44,4.167
		c0.871,3.547-1.464,9.76-4.463,11.869c-1.499,1.054-3.018,0.928-4.504-0.483c-2.14-2.032-3.212-4.633-3.826-7.457
		c-0.037-0.17-0.047-0.346-0.076-0.518C31.682,12.497,34.016,9.745,38.935,9.738"/>
	<path clip-path="url(#SVGID_2_)" fill="#692045" d="M46.549,48.025c-1.348-4.019-1.645-8.092,0.54-11.925
		c0.207-0.362,0.416-0.724,0.626-1.085l6.052,8.473l3.213,11.275c-1.593-0.472-3.191-0.924-4.789-1.374
		C49.34,52.587,47.465,50.756,46.549,48.025 M32.063,45.555c-0.688,3.838-2.525,6.632-6.429,7.808
		c-1.578,0.476-3.178,0.924-4.703,1.533l3.25-11.408l6.132-8.587C32.18,38.206,32.744,41.751,32.063,45.555 M65.426,58.17
		c-1.129-0.796-2.398-1.485-3.704-1.921c-0.435-0.146-0.873-0.283-1.31-0.423l-2.677-14.072l-8.467-13.843
		c0,0-0.652-1.396-2.846-1.396c-1.354,0-1.977,0.554-2.088,0.649l-0.002,0.002c-0.392,0.3-0.789,0.596-1.197,0.881
		c-2.81,1.961-5.53,2.028-8.382,0.103c-0.556-0.376-1.096-0.764-1.622-1.165c-0.019,0.04-0.294-0.47-2.003-0.47
		c-1.872,0-2.448,1.396-2.448,1.396l-8.468,13.843L17.411,56.48c-1.797,0.85-3.569,1.756-5.274,2.763
		c-1.955,1.154-2.314,3.189-1.843,5.325c0.453,2.057,1.727,3.563,3.767,3.938c1.855,0.341,3.838,0.418,5.707,0.177
		c4.364-0.563,8.176-2.729,12.053-4.634c5.404-2.655,11.073-4.183,17.345-4.263c-3.746,1.406-7.477,2.515-9.213,6.686
		c2.884,0.45,5.384,0.849,7.887,1.228c3.885,0.587,7.735,1.528,11.716,1.164c2.115-0.194,4.17-0.585,5.911-1.899
		C68.535,64.649,68.546,60.371,65.426,58.17"/>
</g>
</svg>
