<?xml version="1.0" encoding="utf-8"?>
<!-- Generator: Adobe Illustrator 18.1.1, SVG Export Plug-In . SVG Version: 6.00 Build 0)  -->
<svg version="1.1" id="Слой_1" xmlns="http://www.w3.org/2000/svg" xmlns:xlink="http://www.w3.org/1999/xlink" x="0px" y="0px"
	 viewBox="0 0 77.417 77.417" enable-background="new 0 0 77.417 77.417" xml:space="preserve">
<path fill="#692045" d="M2,2h73.417v73.417H2V2z M0,77.417h77.417V0H0V77.417z"/>
<g>
	<defs>
		<rect id="SVGID_1_" y="0" width="77.417" height="77.417"/>
	</defs>
	<clipPath id="SVGID_2_">
		<use xlink:href="#SVGID_1_"  overflow="visible"/>
	</clipPath>
	<path clip-path="url(#SVGID_2_)" fill="#692045" d="M60.985,26.331c-1.369,0.466-2.634,0.896-3.905,1.329
		c0.828,2.807,1.648,5.521,2.412,8.251c0.106,0.381,0.051,0.894-0.123,1.25C58.736,38.454,55.751,44,55.751,44l3.696,0.676
		c0,0,3.089-5.201,4.657-7.664V36.5C63.071,33.132,62.038,29.765,60.985,26.331"/>
	<path clip-path="url(#SVGID_2_)" fill="#692045" d="M56.636,37.089c0.205-0.415,0.209-1.031,0.08-1.491
		c-0.628-2.245-2.177-7.137-2.177-7.137l-3.978,1.082c0,0,1.217,4.061,1.765,6.035c0.086,0.31,0.051,0.729-0.093,1.014
		c-0.714,1.412-2.735,5.279-2.735,5.279l3.845,1.51C53.342,43.381,55.598,39.185,56.636,37.089"/>
	<path clip-path="url(#SVGID_2_)" fill="#692045" d="M43.547,38.583l3.609,2.087c0,0,1.71-3.177,2.486-4.739
		c0.163-0.327,0.202-0.793,0.116-1.152c-0.371-1.547-0.81-3.077-1.244-4.682c-1.379,0.41-2.652,0.787-3.981,1.181
		c0.288,1.066,0.586,2.003,0.78,2.962c0.08,0.396,0.04,0.887-0.129,1.248C44.709,36.506,43.547,38.583,43.547,38.583"/>
	<path clip-path="url(#SVGID_2_)" fill="#692045" d="M38.116,34.892c0,0,3.191,2.174,3.391,2.299
		c1.874-2.468,1.874-2.468,0.785-5.282c-0.619,0.168-3.644,1.046-3.644,1.046L38.116,34.892z"/>
	<path clip-path="url(#SVGID_2_)" fill="#692045" d="M31.05,34.891c-1.414,0.024-2.701-1.276-2.675-2.698
		c0.027-1.411,1.198-2.518,2.646-2.5c1.448,0.017,2.614,1.145,2.626,2.543C33.659,33.562,32.38,34.87,31.05,34.891 M36.029,33.166
		c0.147-0.712-0.118-1.51-0.212-2.362c7.693-2.14,15.523-4.318,23.65-6.58c-5.298-9.478-16.685-10.322-23.905-9.413
		c-4.79,0.603-9.024,2.458-12.477,5.879c-4.359,4.319-6.083,9.591-5.21,15.632c0.483,3.34,1.882,6.362,3.945,9.058
		c0.333,0.435,0.766,0.868,1.017,1.336c0,0,0.119,0.361,0.277,0.982c0.335,1.74,0.591,3.499,0.774,5.263
		c0.077,1.918-0.077,4.059-0.743,6.096c-0.581,1.778-1.146,3.256-1.651,4.451c-0.643,1.278-1.282,2.579-1.95,3.921
		c2.436,0.368,4.866,0.734,7.294,1.1l2.815,0.424c2.288,0.345,4.576,0.689,6.863,1.034l17.06,2.57c0,0-2.417-6.326-5.663-10.934
		c-0.473-0.744-0.926-1.496-1.25-2.3c-0.611-1.511-0.115-2.685,1.173-3.399c0.157-0.076,0.907-0.363,1.725-0.67
		c0.138-0.046,0.275-0.093,0.411-0.142c0.686-0.252,1.367-0.515,2.237-0.845c-0.626-0.269-1.015-0.429-1.398-0.602
		c-4.502-2.035-8.678-4.625-12.654-7.536c-2.056-1.505-4.045-3.103-6.04-4.688c-0.732-0.58-0.782-1.366-0.223-2.007
		c0.553-0.635,1.273-0.687,1.954-0.138c1.192,0.961,2.362,1.952,3.578,2.882c4.573,3.498,9.339,6.691,14.631,9.017
		c1.319,0.581,2.714,0.99,4.195,1.522c0-0.45,0.018-0.676-0.003-0.898c-0.183-1.914-0.133-3.73,2.036-4.804
		c-10.866-2.029-19.149-7.714-23.358-11.766C35.324,34.534,35.879,33.892,36.029,33.166"/>
	<path clip-path="url(#SVGID_2_)" fill="#692045" d="M28.374,14.53c14.656-6.816,25.848,1.735,25.848,1.735s3.255-3.528-3.359-6.984
		C41.315,4.293,27.116,5.6,19.718,12.552C6.97,24.53,16.22,35.504,16.22,35.504S11.495,22.38,28.374,14.53"/>
</g>
</svg>
