<?xml version="1.0" encoding="utf-8"?>
<!-- Generator: Adobe Illustrator 18.1.1, SVG Export Plug-In . SVG Version: 6.00 Build 0)  -->
<svg version="1.1" id="Слой_1" xmlns="http://www.w3.org/2000/svg" xmlns:xlink="http://www.w3.org/1999/xlink" x="0px" y="0px"
	 viewBox="0 0 77.417 77.417" enable-background="new 0 0 77.417 77.417" xml:space="preserve">
<path fill="#692045" d="M2,2h73.417v73.417H2V2z M0,77.417h77.417V0H0V77.417z"/>
<g>
	<defs>
		<rect id="SVGID_1_" y="0" width="77.417" height="77.417"/>
	</defs>
	<clipPath id="SVGID_2_">
		<use xlink:href="#SVGID_1_"  overflow="visible"/>
	</clipPath>
	<path clip-path="url(#SVGID_2_)" fill="#692045" d="M47.868,50.69V17.595h-4.063V50.69c-3.223,0.891-5.597,3.849-5.597,7.352
		c0,4.207,3.422,7.629,7.628,7.629c4.207,0,7.63-3.422,7.63-7.629C53.466,54.539,51.091,51.581,47.868,50.69"/>
	<path clip-path="url(#SVGID_2_)" fill="#692045" d="M63.528,19.671v-2.167h-9.432v-3.52c0-4.555-3.705-8.261-8.26-8.261
		s-8.261,3.706-8.261,8.261v32.94c-3.487,2.599-5.597,6.727-5.597,11.118c0,7.641,6.217,13.858,13.858,13.858
		c7.642,0,13.859-6.217,13.859-13.858c0-4.391-2.111-8.519-5.599-11.118v-2.875h9.432v-2.167h-9.432v-2.709h9.432v-2.167h-9.432
		v-2.708h9.432v-2.167h-9.432v-2.708h9.432v-2.167h-9.432v-2.708h9.432v-2.167h-9.432v-2.71H63.528z M56.985,58.042
		c0,6.148-5.001,11.15-11.149,11.15c-6.149,0-11.15-5.002-11.15-11.15c0-4.127,2.256-7.735,5.598-9.663V13.984
		c0-3.062,2.49-5.553,5.552-5.553c3.061,0,5.552,2.491,5.552,5.553v34.395C54.729,50.307,56.985,53.915,56.985,58.042"/>
	<rect x="11.051" y="42.965" clip-path="url(#SVGID_2_)" fill="#692045" width="17.396" height="4.875"/>
	<rect x="11.051" y="17.963" clip-path="url(#SVGID_2_)" fill="#692045" width="17.396" height="4.875"/>
	<rect x="17.311" y="11.703" clip-path="url(#SVGID_2_)" fill="#692045" width="4.876" height="17.396"/>
</g>
</svg>
