<?xml version="1.0" encoding="utf-8"?>
<!-- Generator: Adobe Illustrator 18.1.1, SVG Export Plug-In . SVG Version: 6.00 Build 0)  -->
<svg version="1.1" id="Слой_1" xmlns="http://www.w3.org/2000/svg" xmlns:xlink="http://www.w3.org/1999/xlink" x="0px" y="0px"
	 viewBox="0 0 77.417 77.417" enable-background="new 0 0 77.417 77.417" xml:space="preserve">
<path fill="#692045" d="M2,2h73.417v73.417H2V2z M0,77.417h77.417V0H0V77.417z"/>
<g>
	<defs>
		<rect id="SVGID_1_" y="0" width="77.417" height="77.417"/>
	</defs>
	<clipPath id="SVGID_2_">
		<use xlink:href="#SVGID_1_"  overflow="visible"/>
	</clipPath>
	<path clip-path="url(#SVGID_2_)" fill="#692045" d="M40.007,24.456c2.223,0.524,6.621,1.672,6.611,1.725
		c-0.617-0.001-1.234,0.011-1.85-0.007c-4.982-0.152-7.366,0.597-7.497,0.727c-2.683,2.637-5.082,5.522-7.345,8.517
		c-2.19,2.899-6.601,8.962-6.665,9.056c1.659,0.432,3.294,0.857,4.929,1.282c-0.006,0.044-1.353-0.125-1.922-0.115
		c-3.657,0.06-4.83,1.192-4.83,1.192s-2.977,3.592-3.037,3.673c1.552,0.412,3.506,0.929,4.627,1.226
		c-4.711-0.275-7.054,1.263-7.31,1.509c-2.987,2.878-6.098,5-9.842,6.96c-2.054,1.075-2.983,3.519-2.3,5.785
		C3.903,67.072,4.452,68.01,5.23,68.8c0.923,0.936,2.107,1.418,3.363,1.753c2.551,0.682,5.103,0.577,7.653,0.041
		c3.396-0.714,6.578-2.025,9.65-3.598c2.676-1.37,5.33-2.786,7.948-4.265c1.085-0.613,2.118-1.319,3.159-2.012
		c0.384-0.256,1.712-2.011,1.095-7.152c-0.007-0.113-0.015-0.227,0.014-0.346c0.733,1.828,1.069,3.752,1.41,5.762
		c0.406-0.294,0.776-0.548,1.133-0.82c4.574-3.482,8.754-7.368,12.363-11.837c0.278-0.344,1.11-4.056,0.443-9.619
		c-0.009-0.056-0.011-0.112-0.017-0.168c0.038-0.013,0.077-0.025,0.115-0.038c0.726,1.99,1.453,3.98,2.201,6.031
		c4.274-6.389,5.082-13.255,3.959-20.488C34.653,57.516,13.613,63.499,9.112,65.016c-0.111,0.038-0.225,0.062-0.333,0.092
		c25.764-8.511,48.843-44.269,53.352-48.319c3.051-2.739,6.228-4.776,9.732-6.914c0.089-0.054,2.201-2.372,2.201-2.372
		s-3.307,0.9-3.832,1.223c-4.559,2.806-8.836,5.994-12.891,9.488c-0.206,0.177-0.514,0.306-0.787,0.33
		c-2.628,0.237-5.243,0.551-7.79,1.268c-2.869,0.809-5.495,2.116-7.857,3.942C40.595,23.995,40.284,24.24,40.007,24.456"/>
</g>
</svg>
