<svg xmlns="http://www.w3.org/2000/svg" width="2048" height="1024" viewBox="0 0 2048 1024"><path d="M455.004 410.682H314.88c0-23-2.702-38.42-8.09-46.286-8.334-11.612-31.356-17.448-69.018-17.448-36.598 0-60.846 3.338-72.662 10.056-11.836 6.738-17.756 21.34-17.756 43.848 0 20.378 5.242 33.812 15.77 40.224 7.538 4.568 17.49 7.25 29.88 8.048l28.262 2.006c60.58 4.014 98.406 6.84 113.48 8.458 47.904 4.834 82.616 17.55 104.162 38.194 16.956 16.118 27.054 37.15 30.29 63.14 1.884 15.544 2.826 33.158 2.826 52.696 0 45.056-4.3 78.048-12.902 98.96-15.606 38.38-50.668 62.606-105.186 72.786-22.856 4.3-57.796 6.452-104.818 6.452-78.478 0-133.162-4.67-164.044-14.048-37.888-11.49-62.894-34.796-74.978-69.878C3.338 688.352 0 655.81 0 610.282h140.124c0 5.078.02 8.97.02 11.654 0 24.31 6.984 39.916 20.932 46.878 9.668 4.792 21.32 7.312 35.022 7.62h51.528c26.296 0 43.068-1.352 50.3-4.056 12.882-5.058 21.34-13.21 25.376-24.494 2.15-6.962 3.214-15.932 3.214-26.932 0-24.636-8.99-39.63-26.952-45.016-6.738-2.108-37.97-5.1-93.736-8.826-44.79-3.194-75.9-6.268-93.326-9.256-45.876-8.582-76.452-26.236-91.71-53.024C7.378 482.078.68 447.628.68 401.548c0-35.082 3.626-63.222 10.876-84.378 7.25-21.176 18.924-37.234 35.062-48.23 23.612-16.876 53.862-26.788 90.644-29.738 30.618-2.682 64.572-4.034 101.95-4.034 58.82 0 100.722 3.38 125.706 10.076 60.988 16.384 91.464 62.28 91.464 137.688 0 6.144-.452 15.4-1.372 27.75zm616.224 381.154V232.16h280.636c38.502 0 67.85 3.132 88.044 9.42 46.162 14.458 77.128 44.072 92.98 88.822 8.172 23.49 12.288 58.86 12.288 106.066 0 56.77-4.548 97.568-13.538 122.408-18.002 49.112-55.05 77.414-110.98 84.746-6.574 1.106-34.57 2.068-83.988 2.888l-24.986.818h-89.806v144.508h-150.652zm150.628-274.328h93.902c29.778-1.066 47.882-3.36 54.394-6.944 8.91-4.894 14.888-14.704 17.858-29.39 1.904-9.788 2.846-24.33 2.846-43.644 0-23.674-1.884-41.226-5.692-52.674-5.406-16.056-18.392-25.826-38.932-29.39-4.076-.532-13.804-.82-29.224-.82h-95.15v162.856zm644.836 177.602h-201.4l-27.054 96.728h-155.832l168.162-559.658h227.204l170.23 559.658h-152.556l-28.754-96.728zm-29.902-109.036l-70.574-242.606-68.484 242.606h139.058zm-973.456-275.17c62.116 0 117.576 28.61 154.01 73.442l32.46-69.612c-50.77-47.984-119.89-77.578-196.116-77.578-118.682 0-220.222 71.68-261.878 173.158h-63.324l-37.396 80.138h81.45c-.614 7.434-1.004 14.868-1.004 22.466 0 9.174.472 18.268 1.394 27.238h-40.94l-37.376 80.178h99.124C636.582 719.232 736.852 788.66 853.67 788.66c58.88 0 113.5-17.634 158.74-47.78v-98.242c-36.434 41.472-89.702 67.686-149.116 67.686-69.428 0-130.5-35.798-166.072-89.99h207.564l37.396-80.178H666.726a200.72 200.72 0 0 1-2.192-29.554c0-6.798.348-13.516 1.004-20.152h299.826l37.376-80.138H691.444c34.448-59.432 98.51-99.41 171.89-99.41z"/></svg>