<svg xmlns="http://www.w3.org/2000/svg" width="2048" height="1024" viewBox="0 0 2048 1024"><path d="M529.06 466.328c0 53.166-21.872 99.554-65.414 139.386-43.644 39.814-107.212 59.74-190.586 59.74-87.286 0-159.294-7.558-216.188-22.752V494.794c53.084 22.754 113.788 34.14 182.046 34.14s102.4-18.944 102.4-56.894c0-30.332-22.752-45.508-68.26-45.508-151.716-11.406-227.552-75.858-227.552-193.454 0-53.084 19.906-99.554 59.74-139.388S206.684 33.95 290.14 33.95c75.836 0 147.908 11.388 216.188 34.14v142.212l-45.526-17.038c-53.166-15.114-100.516-22.752-142.214-22.752-64.532 0-96.706 17.06-96.706 51.2 0 30.414 22.752 45.506 68.26 45.506 159.274 11.388 238.92 77.764 238.92 199.108zm-250.308 392.54v108.094h-51.2v-96.708c0-11.386-3.808-17.06-11.388-17.06-3.808 0-13.332 3.808-28.448 11.388v102.4h-45.508v-96.706c0-11.386-5.694-17.06-17.06-17.06-7.66 0-15.196 3.808-22.754 11.386v102.4H56.888v-153.6H96.7l5.692 22.712c11.388-18.944 26.482-28.448 45.506-28.448 18.944 0 32.174 9.504 39.812 28.448 11.388-18.944 26.48-28.448 45.508-28.448 30.332 0 45.526 17.06 45.526 51.2zm96.708-51.2c-49.316 0-73.954 28.448-73.954 85.34 0 53.166 24.638 79.646 73.952 79.646 49.234 0 73.952-28.446 73.952-85.34 0-53.084-24.718-79.648-73.952-79.648zm0 125.152c-19.026 0-28.448-15.094-28.448-45.506 0-26.48 9.42-39.814 28.448-39.814 18.944 0 28.448 15.196 28.448 45.508 0 26.562-9.502 39.812-28.448 39.812zm233.246-73.952v108.094H563.2v-96.708c0-11.386-5.692-17.06-17.06-17.06-7.66 0-15.196 3.808-22.754 11.388v102.4h-51.2v-153.6h45.508v22.752c18.944-18.944 36.004-28.446 51.2-28.446 26.48-.02 39.812 17.038 39.812 51.18zM739.552 659.76H574.566V68.114l164.986-34.14v329.952c60.62-75.836 91.014-128.88 91.014-159.292H1024c-26.562 79.646-66.396 153.6-119.46 221.86 60.62 102.4 96.706 180.164 108.092 233.248H813.526c-15.196-71.988-39.812-132.73-73.952-182.048v182.068zm34.14 227.554c0-53.084-22.754-79.648-68.26-79.648s-68.26 28.448-68.26 85.34c0 53.166 24.636 79.646 73.952 79.646 18.944 0 39.812-7.558 62.586-22.752l-5.714-28.448c-22.754 7.66-37.948 11.388-45.506 11.388-26.562 0-39.812-9.422-39.812-28.448h91.014v-17.08zm-91.032-11.386c0-22.752 7.558-34.14 22.754-34.14 15.114 0 22.754 11.386 22.754 34.14h-45.506zm210.494-62.566h45.506l-56.894 159.292c-11.388 34.14-32.256 51.2-62.586 51.2h-17.06l-11.388-39.812h22.754c11.388 0 18.944-3.728 22.754-11.386l5.692-5.692-56.894-147.908 51.2-5.692 28.448 96.708 28.466-96.708zm153.598-5.694c-19.026 0-32.256 7.66-39.812 22.754v-91.014l-51.2 5.692v210.494c11.388 7.66 34.14 11.386 68.26 11.386 49.234 0 73.954-26.48 73.954-79.648 0-53.106-17.06-79.666-51.2-79.666zM1024 932.82h-11.386l-5.692-5.692v-62.586c7.558-7.558 15.094-11.386 22.752-11.386 15.094 0 22.752 11.386 22.752 34.14.02 30.432-9.482 45.528-28.426 45.528zm187.74-273.06h-164.988v-256c0-132.73 75.836-200.99 227.554-204.8 18.944-3.726 32.174-3.726 39.814 0V335.5c-41.778 0-69.242 8.54-82.492 25.6-13.332 17.06-19.906 46.468-19.906 88.186V659.76zm-17.08 147.908c-49.316 0-73.952 28.448-73.952 85.34 0 53.166 24.636 79.646 73.952 79.646 49.234 0 73.952-28.446 73.952-85.34 0-53.084-24.72-79.648-73.952-79.648zm0 125.152c-19.026 0-28.446-15.094-28.446-45.506 0-26.48 9.422-39.814 28.446-39.814 18.944 0 28.446 15.196 28.446 45.508 0 26.562-9.502 39.812-28.446 39.812zm164.986-125.152c-49.316 0-73.952 28.448-73.952 85.34 0 53.166 24.636 79.646 73.952 79.646 49.234 0 73.952-28.446 73.952-85.34 0-53.084-24.72-79.648-73.952-79.648zm0 125.152c-19.026 0-28.446-15.094-28.446-45.506 0-26.48 9.422-39.814 28.446-39.814 18.944 0 28.446 15.196 28.446 45.508 0 26.562-9.502 39.812-28.446 39.812zm85.342-773.692c-53.166 0-79.646-26.48-79.646-79.646 0-53.084 26.48-79.648 79.646-79.648 53.084 0 79.646 26.562 79.646 79.648-.02 53.166-26.584 79.646-79.646 79.646zm79.626 500.632h-159.292V204.654h159.294V659.76zm22.772 221.862l51.2 79.646-51.2 5.692-45.508-73.952v73.952h-45.508V745.08l45.508-5.692v136.54l45.508-62.586h51.2l-51.2 68.28zm51.2-813.508l159.294-34.14v625.788h-159.294V68.116zm142.214 819.2c0-53.084-22.752-79.648-68.26-79.648s-68.26 28.448-68.26 85.34c0 53.166 24.636 79.646 73.952 79.646 18.944 0 39.814-7.558 62.586-22.752l-5.692-28.448c-22.752 7.66-37.95 11.388-45.508 11.388-26.564 0-39.814-9.422-39.814-28.448h90.992v-17.08zm-91.012-11.386c0-22.752 7.558-34.14 22.752-34.14 15.114 0 22.752 11.386 22.752 34.14h-45.508zm210.472-68.26l5.692 51.2c-19.026 0-36.106 7.66-51.2 22.754v85.34h-45.508v-153.6h39.814l5.692 28.446c11.386-18.944 26.48-30.33 45.508-34.14zM1996.8 659.76h-164.988V68.114l164.988-34.14v625.788zm5.692 261.694c0 30.414-20.868 45.508-62.586 45.508-19.026 0-39.814-3.728-62.586-11.386l5.692-39.814c22.752 15.196 41.696 22.754 56.894 22.754 15.114 0 22.752-3.728 22.752-11.386 0-7.558-9.502-13.25-28.446-17.06-34.14-11.386-51.2-28.448-51.2-51.2 0-30.332 18.944-45.508 56.894-45.508 26.48 0 45.508 3.808 56.894 11.388l-5.692 34.14c-15.196-11.386-32.256-17.06-51.2-17.06-11.386 0-17.06 3.808-17.06 11.388 0 7.66 9.422 13.332 28.446 17.06 34.12 11.346 51.2 28.406 51.2 51.18z"/></svg>