<svg xmlns="http://www.w3.org/2000/svg" viewBox="0 0 101.59 37.39"><path d="M15.09 37.08V25l-4.88 12.08H8.6L3.72 25v12.08H0V19.76h5.2l4.2 10.47 4.21-10.47h5.19v17.32zm7.2 0V19.76H26v17.32zm19.06 0l-8.26-11.3v11.3H29.4V19.76h3.8l8 10.88V19.76h3.69v17.32zm7.03 0V19.76h3.69v17.32zm5.88-2.44l2-2.8a7.59 7.59 0 0 0 5.51 2.34c2 0 3-.93 3-1.92 0-3.06-10-1-10-7.48 0-2.88 2.49-5.27 6.57-5.27a9.63 9.63 0 0 1 6.75 2.42l-2.05 2.7a7.44 7.44 0 0 0-5-1.9c-1.58 0-2.47.7-2.47 1.74 0 2.75 9.95.91 9.95 7.38 0 3.17-2.26 5.56-6.93 5.56a9.87 9.87 0 0 1-7.33-2.77zm15.67-6.21a9.05 9.05 0 0 1 18.1 0 9.05 9.05 0 0 1-18.1 0zm14.31 0c0-3.25-2.08-5.69-5.27-5.69s-5.25 2.44-5.25 5.69 2.05 5.69 5.25 5.69 5.27-2.47 5.27-5.69zm6.34 8.65V19.76h3.69v14.07h7.32v3.25z" fill="#fff"/><path d="M7.89 6.46a2.75 2.75 0 0 1 5.26 0h1.47v-3h-1.37a3.88 3.88 0 0 0-2.72-1 3.88 3.88 0 0 0-2.72 1H6.42v3zm8.43 0a2.75 2.75 0 0 1 5.26 0H23v-3h-1.33a4.08 4.08 0 0 0-5.45 0h-1.37v3zm8.43 0a2.76 2.76 0 0 1 2.63-1.93 18.41 18.41 0 0 0 4.1-1.06H30.1a4.08 4.08 0 0 0-5.45 0h-1.37v3zm44.83.02a2.75 2.75 0 0 0-5.26 0h-1.46v-3h1.37a4.08 4.08 0 0 1 5.45 0H71v3zm-8.43 0a2.75 2.75 0 0 0-5.26 0h-1.46v-3h1.37a4.08 4.08 0 0 1 5.45 0h1.37v3zm-8.43 0a2.75 2.75 0 0 0-5.26 0H46v-3h1.37a4.08 4.08 0 0 1 5.45 0h1.37v3zm33.75-.01a2.75 2.75 0 0 0-5.26 0h-1.47v-3h1.37a4.08 4.08 0 0 1 5.45 0h1.37v3zm-8.47 0a2.75 2.75 0 0 0-5.26 0h-1.43v-3h1.37a4.08 4.08 0 0 1 5.45 0h1.37v3z" fill="#9a3711"/><path d="M4.7 10.19a2.75 2.75 0 0 1 5.26 0h1.47v-3h-1.38a3.88 3.88 0 0 0-2.72-1 3.88 3.88 0 0 0-2.72 1H3.23v3zm8.43 0a2.75 2.75 0 0 1 5.26 0h1.47v-3h-1.38a4.08 4.08 0 0 0-5.45 0h-1.37v3zm8.43 0a2.75 2.75 0 0 1 5.26 0l1.47-3h-1.38a4.08 4.08 0 0 0-5.45 0h-1.37v3zm51.21.01a2.75 2.75 0 0 0-5.26 0H66v-3h1.37a4.08 4.08 0 0 1 5.45 0h1.37v3zm-8.42 0a2.75 2.75 0 0 0-5.26 0h-1.47v-3H59a4.08 4.08 0 0 1 5.45 0h1.37v3zm-8.43 0a2.75 2.75 0 0 0-5.26 0h-1.47v-3h1.37a4.08 4.08 0 0 1 5.45 0h1.37v3zm33.74 0a2.75 2.75 0 0 0-5.26 0h-1.46v-3h1.37a4.08 4.08 0 0 1 5.45 0h1.37v3zm-8.43 0a2.75 2.75 0 0 0-5.26 0h-1.46v-3h1.37a4.08 4.08 0 0 1 5.45 0h1.37v3z" fill="#c54a20"/><path d="M1.5 13.91a2.75 2.75 0 0 1 5.26 0h1.47v-3H6.86a3.88 3.88 0 0 0-2.72-1 3.88 3.88 0 0 0-2.72 1H0v3zm8.43 0a2.75 2.75 0 0 1 5.26 0h1.47v-3h-1.37a3.88 3.88 0 0 0-2.72-1 3.88 3.88 0 0 0-2.72 1H8.46v3zm8.43 0a2.75 2.75 0 0 1 5.26 0h1.47v-3h-1.38a4.08 4.08 0 0 0-5.45 0h-1.37v3zm57.64.02a2.75 2.75 0 0 0-5.26 0h-1.5v-3h1.37a4.08 4.08 0 0 1 5.45 0h1.37v3zm-8.46 0a2.75 2.75 0 0 0-5.26 0h-1.47v-3h1.37a4.08 4.08 0 0 1 5.45 0H69v3zm-8.43 0a2.75 2.75 0 0 0-5.26 0h-2.93v-3h2.84a4.08 4.08 0 0 1 5.45 0h1.37v3zm33.71.01a2.75 2.75 0 0 0-5.26 0h-1.47v-3h1.37a4.08 4.08 0 0 1 5.45 0h1.37v3zm-8.43 0a2.75 2.75 0 0 0-5.26 0h-1.47v-3H79a4.08 4.08 0 0 1 5.45 0h1.37v3z" fill="#f15a29"/><path d="M25.94 15v-.12C25.93 8.79 31 3.35 37.16 3.35S48.34 8.79 48.34 14.9v.12H52v-.12a14.89 14.89 0 1 0-29.78 0v.12z" fill="#f7941d"/><path d="M38.11 13.43h6.77A7.74 7.74 0 0 0 38.11 6zM36.45 6a7.75 7.75 0 0 0-7 7.44h7z" fill="#9ea0a1"/><path fill="#f7941d" d="M0 14.73h25.94v2H0zm48.34 0H94.3v2H48.34z"/></svg>